<svg xmlns="http://www.w3.org/2000/svg" xmlns:xlink="http://www.w3.org/1999/xlink" width="220" height="160" viewBox="0 0 220 160"><defs><clipPath id="a"><path d="M0,0H57a0,0,0,0,1,0,0V33A12,12,0,0,1,45,45H12A12,12,0,0,1,0,33V0A0,0,0,0,1,0,0Z" transform="translate(-18.128 -17.128)" fill="#ebedf2" stroke="#c3c4c7" stroke-width="3"/></clipPath></defs><rect width="220" height="160" fill="#fff" opacity="0"/><rect width="220" height="160" fill="#fff" opacity="0"/><path d="M1665.073,307.926a1,1,0,0,0-.082-1.253c-.009-.01-.012-.023-.021-.032h0a1.02,1.02,0,0,0-1.442,0l-2.227,2.226a6.1,6.1,0,0,0-8.518,8.51l-2.229,2.227c-.016.016-.022.039-.037.056a.919.919,0,0,0-.259.653v.01h0a1.016,1.016,0,0,0,.3.721h0c.008.008.018.01.026.017a1,1,0,0,0,.309.2,1.019,1.019,0,0,0,.274.055.992.992,0,0,0,.111.022h0l.09-.018a.911.911,0,0,0,.635-.281l2.229-2.226a6.1,6.1,0,0,0,8.518-8.51l2.229-2.227A1.1,1.1,0,0,0,1665.073,307.926Zm-11.389,5.916a4.054,4.054,0,0,1,6.137-3.5l-5.559,5.553a4.027,4.027,0,0,1-.578-2.053Zm8.155,0a4.051,4.051,0,0,1-6.135,3.5l5.558-5.554a4.029,4.029,0,0,1,.577,2.054Z" transform="translate(-1650.258 -263.343)" fill="#7b7e87"/><path d="M72,528a8,8,0,1,1,8-8A8,8,0,0,1,72,528Zm0-14a6,6,0,1,0,6,6A6,6,0,0,0,72,514Zm3.83,8.83a1,1,0,0,1-1.711.7L72,521.415l-2.12,2.12a1,1,0,0,1-1.415-1.414L70.584,520l-2.12-2.12a1,1,0,1,1,1.414-1.414L72,518.585l2.12-2.12a1,1,0,1,1,1.415,1.413L73.416,520l2.12,2.12A1,1,0,0,1,75.83,522.83Z" transform="translate(139 -412)" fill="#7b7e87" stroke="rgba(0,0,0,0)" stroke-width="1"/><path d="M737.414,1156.414l2.293-2.293a1,1,0,0,0-1.414-1.414L736,1155l-2.293-2.293a1,1,0,0,0-1.414,1.414l2.293,2.293-2.293,2.293a1,1,0,1,0,1.414,1.414l2.293-2.293,2.293,2.293a1,1,0,0,0,1.414-1.414Z" transform="translate(-594 -1147.414)" fill="#7b7e87" opacity="0.6"/><path d="M737.414,1156.414l2.293-2.293a1,1,0,0,0-1.414-1.414L736,1155l-2.293-2.293a1,1,0,0,0-1.414,1.414l2.293,2.293-2.293,2.293a1,1,0,1,0,1.414,1.414l2.293-2.293,2.293,2.293a1,1,0,0,0,1.414-1.414Z" transform="translate(-539 -1005.414)" fill="#7b7e87" opacity="0.6"/><path d="M737.414,1156.414l2.293-2.293a1,1,0,0,0-1.414-1.414L736,1155l-2.293-2.293a1,1,0,0,0-1.414,1.414l2.293,2.293-2.293,2.293a1,1,0,1,0,1.414,1.414l2.293-2.293,2.293,2.293a1,1,0,0,0,1.414-1.414Z" transform="translate(-683 -1009.414)" fill="#7b7e87" opacity="0.6"/><path d="M0,8a8,8,0,1,1,8,8A8,8,0,0,1,0,8ZM2,8A6,6,0,1,0,8,2,6,6,0,0,0,2,8Zm5,3a1,1,0,1,1,1,1A1,1,0,0,1,7,11ZM7,8V5A1,1,0,1,1,9,5V8A1,1,0,0,1,7,8Z" transform="translate(110 138)" fill="#7b7e87" stroke="rgba(0,0,0,0)" stroke-width="1"/><g transform="translate(-1370 -28)"><path d="M1385.306,147.694a1,1,0,0,0,1.414-1.414l-1.293-1.293,1.293-1.293a1,1,0,0,0-1.414-1.414l-1.293,1.293-1.293-1.293a1,1,0,0,0-1.414,1.414l1.293,1.293-1.293,1.293a1,1,0,0,0,1.388,1.44l.026-.026,1.293-1.293Z" fill="#7b7e87" stroke="rgba(0,0,0,0)" stroke-width="1"/><path d="M1396.72,146.28l-1.293-1.293,1.293-1.293a1,1,0,0,0-1.414-1.414l-1.293,1.293-1.293-1.293a1,1,0,0,0-1.414,1.414l1.293,1.293-1.293,1.293a1,1,0,0,0,1.388,1.44l.026-.026,1.293-1.293,1.293,1.293a1,1,0,0,0,1.414-1.414Z" fill="#7b7e87" stroke="rgba(0,0,0,0)" stroke-width="1"/><path d="M1388.965,151c-4.892,0-5.9,3.551-5.935,3.7a1.034,1.034,0,0,0,.737,1.242,1.053,1.053,0,0,0,1.3-.716c.009-.021.614-2.157,3.9-2.157,3.239,0,3.943,2.1,3.967,2.175a1.067,1.067,0,0,0,1.3.716h0a1.035,1.035,0,0,0,.725-1.279C1394.913,154.532,1393.841,151,1388.965,151Z" fill="#7b7e87" stroke="rgba(0,0,0,0)" stroke-width="1"/></g><path d="M1463.735,170.115c-2.206,0-4-2.243-4-5s1.794-5,4-5,4,2.243,4,5S1465.942,170.115,1463.735,170.115Zm0-8c-1.084,0-2,1.374-2,3s.916,3,2,3,2-1.374,2-3S1464.819,162.115,1463.735,162.115Z" transform="translate(-1264.735 -131.115)" fill="#7b7e87" opacity="0.6"/><path d="M1463.735,170.115c-2.206,0-4-2.243-4-5s1.794-5,4-5,4,2.243,4,5S1465.942,170.115,1463.735,170.115Zm0-8c-1.084,0-2,1.374-2,3s.916,3,2,3,2-1.374,2-3S1464.819,162.115,1463.735,162.115Z" transform="translate(-1416.735 -156.115)" fill="#7b7e87" opacity="0.6"/><path d="M9,0H121a9,9,0,0,1,9,9V19a0,0,0,0,1,0,0H0a0,0,0,0,1,0,0V9A9,9,0,0,1,9,0Z" transform="translate(45 25)" fill="#b3b3b3"/><g transform="translate(130 41)"><rect width="20" height="2" rx="1" transform="translate(15 61)" fill="#fff" opacity="0.6"/><rect width="20" height="2" rx="1" transform="translate(15 56)" fill="#fff" opacity="0.6"/><rect width="16" height="2" rx="1" transform="translate(17 51)" fill="#fff" opacity="0.9"/><g opacity="0.5"><path d="M299.873,312.5a3.1,3.1,0,1,0,3.1,3.1A3.1,3.1,0,0,0,299.873,312.5Zm0,4.2a1.1,1.1,0,1,1,1.1-1.1A1.1,1.1,0,0,1,299.873,316.7Z" transform="translate(-274.873 -278)" fill="#fff" stroke="rgba(0,0,0,0)" stroke-width="1"/><path d="M299.873,309a8,8,0,1,0,8,8A8.009,8.009,0,0,0,299.873,309Zm-3.232,13.047a1.072,1.072,0,0,1,.95-.547h4.564a1.07,1.07,0,0,1,.95.547,5.957,5.957,0,0,1-6.464,0Zm7.956-1.36a3.026,3.026,0,0,0-2.442-1.187h-4.564a3.028,3.028,0,0,0-2.442,1.186,6,6,0,1,1,9.448,0Z" transform="translate(-274.873 -278)" fill="#fff" stroke="rgba(0,0,0,0)" stroke-width="1"/></g></g><g transform="translate(45 41)" fill="#f6f6f6" stroke="#b3b3b3" stroke-width="3"><path d="M0,0H130a0,0,0,0,1,0,0V59a12,12,0,0,1-12,12H12A12,12,0,0,1,0,59V0A0,0,0,0,1,0,0Z" stroke="none"/><path d="M3,1.5H127A1.5,1.5,0,0,1,128.5,3V59A10.5,10.5,0,0,1,118,69.5H12A10.5,10.5,0,0,1,1.5,59V3A1.5,1.5,0,0,1,3,1.5Z" fill="none"/></g><path d="M71.9,40.6a.945.945,0,0,1-1-1v-2a1,1,0,0,1,2,0v2A1,1,0,0,1,71.9,40.6Zm0-8a.945.945,0,0,1-1-1v-2a1,1,0,0,1,2,0v2A1,1,0,0,1,71.9,32.6ZM70.5,26h-2a1,1,0,1,1,0-2h2a1,1,0,0,1,0,2Zm-8,0h-2a1,1,0,1,1,0-2h2a1,1,0,1,1,0,2Zm-8,0h-2a1,1,0,1,1,0-2h2a1,1,0,1,1,0,2Zm-8,0h-2a1,1,0,1,1,0-2h2a1,1,0,1,1,0,2Z" transform="translate(140 53)" fill="#9a9da2"/><path d="M44.5,24a.945.945,0,0,1,1,1v2a1,1,0,0,1-2,0V25A1,1,0,0,1,44.5,24Zm0,8a.945.945,0,0,1,1,1v2a1,1,0,0,1-2,0V33A1,1,0,0,1,44.5,32Zm1.4,6.6h2a1,1,0,1,1,0,2h-2a1,1,0,1,1,0-2Zm8,0h2a1,1,0,1,1,0,2h-2a1,1,0,1,1,0-2Zm8,0h2a1,1,0,1,1,0,2h-2a1,1,0,1,1,0-2Zm8,0h2a1,1,0,1,1,0,2h-2a1,1,0,1,1,0-2Z" transform="translate(-37 39)" fill="#9a9da2"/><g transform="translate(136.128 84.128)"><g clip-path="url(#a)"><circle cx="30.5" cy="30.5" r="30.5" transform="translate(-5.128 -10.129)" fill="rgba(36,37,44,0.4)" stroke="rgba(0,0,0,0)" stroke-miterlimit="10" stroke-width="1"/></g><circle cx="30.5" cy="30.5" r="30.5" transform="translate(-10.128 -10.129)" fill="#ee4957"/><path d="M749.9,1166.151l5.709-5.709a2.944,2.944,0,0,0-4.164-4.164l-5.709,5.709-5.709-5.709a2.944,2.944,0,0,0-4.164,4.164l5.709,5.709-5.709,5.71a2.944,2.944,0,1,0,4.164,4.164l5.709-5.709,5.709,5.709a2.944,2.944,0,0,0,4.164-4.164Z" transform="translate(-725.532 -1145.949)" fill="#fff"/></g><g opacity="0.5"><g transform="translate(35.662 26.62)"><circle cx="3" cy="3" r="3" transform="translate(116.337 5.38)" fill="#626363"/></g><g transform="translate(25.662 26.62)"><circle cx="3" cy="3" r="3" transform="translate(116.337 5.38)" fill="#626363"/></g><g transform="translate(45.662 26.62)"><circle cx="3" cy="3" r="3" transform="translate(116.337 5.38)" fill="#626363"/></g></g><g transform="translate(-1774.758 -103)"><path d="M1813.462,144.208a2.678,2.678,0,0,0,3.773-3.8l-2.928-2.927,2.942-2.942a2.678,2.678,0,0,0-3.8-3.773l-2.928,2.927-2.941-2.941a2.678,2.678,0,0,0-3.773,3.8l2.927,2.928-2.912,2.913a2.678,2.678,0,0,0,1.807,4.606h.052a2.71,2.71,0,0,0,1.913-.806l2.927-2.927Z" transform="translate(62.758 32)" fill="#b3b3b3" stroke="rgba(0,0,0,0)" stroke-width="1"/><path d="M1842.235,140.407l-2.927-2.927,2.941-2.942a2.678,2.678,0,0,0-3.8-3.773l-2.928,2.927-2.941-2.941a2.678,2.678,0,0,0-3.773,3.8l2.927,2.928-2.912,2.913a2.678,2.678,0,0,0,1.808,4.606h.051a2.708,2.708,0,0,0,1.913-.806l2.927-2.927,2.942,2.941a2.678,2.678,0,0,0,3.773-3.8Z" transform="translate(60.758 32)" fill="#b3b3b3" stroke="rgba(0,0,0,0)" stroke-width="1"/><path d="M1905.993,187.794c-.229-.242-5.643-5.763-17.353-6.007-11.71.244-17.123,5.765-17.352,6.007a2.341,2.341,0,0,0,.114,3.344,2.484,2.484,0,0,0,3.433-.082c.177-.179,4.361-4.282,13.805-4.505,9.445.223,13.628,4.326,13.806,4.505a2.482,2.482,0,0,0,3.432.082A2.34,2.34,0,0,0,1905.993,187.794Z" transform="translate(-3.883 2.213)" fill="#b3b3b3" stroke="rgba(0,0,0,0)" stroke-width="1"/></g></svg>