<svg xmlns="http://www.w3.org/2000/svg" width="950.228" height="950.228" viewBox="0 0 950.228 950.228"><g transform="translate(950.228 950.228) rotate(180)" opacity="0.1" style="mix-blend-mode:screen;isolation:isolate"><path d="M0,0,118.779,118.778H0Z" fill="#4bac59"/><path d="M118.779,118.778,0,0H118.779Z" fill="#338c7c"/><path d="M125,0,243.779,118.778H125Z" transform="translate(-6.221)" fill="#4cb884"/><path d="M243.779,118.778,125,0H243.779Z" transform="translate(-6.221)" fill="#23828a"/><path d="M368.779,118.778,250,0H368.779Z" transform="translate(-12.443)" fill="#0f7d8a"/><path d="M375,0,493.779,118.778H375Z" transform="translate(-18.664)" fill="#259d6f"/><path d="M493.779,118.778,375,0H493.779Z" transform="translate(-18.664)" fill="#117d76"/><path d="M500,0,618.779,118.778H500Z" transform="translate(-24.886)" fill="#44b253"/><path d="M743.779,118.778,625,0H743.779Z" transform="translate(-31.107)" fill="#42b762"/><path d="M750,0,868.777,118.778H750Z" transform="translate(-37.329)" fill="#50c262"/><path d="M868.777,118.778,750,0H868.777Z" transform="translate(-37.329)" fill="#49c062"/><path d="M875,0l118.78,118.778H875Z" transform="translate(-43.55)" fill="#5cc95f"/><path d="M118.779,243.778,0,125H118.779Z" transform="translate(0 -6.221)" fill="#06566c"/><path d="M125,125,243.779,243.778H125Z" transform="translate(-6.221 -6.221)" fill="#075a6d"/><path d="M250,125,368.779,243.778H250Z" transform="translate(-12.443 -6.221)" fill="#075c76"/><path d="M375,125,493.779,243.778H375Z" transform="translate(-18.664 -6.221)" fill="#096878"/><path d="M493.779,243.778,375,125H493.779Z" transform="translate(-18.664 -6.221)" fill="#1b6b71"/><path d="M500,125,618.779,243.778H500Z" transform="translate(-24.886 -6.221)" fill="#108382"/><path d="M618.779,243.778,500,125H618.779Z" transform="translate(-24.886 -6.221)" fill="#1c9481"/><path d="M750,125,868.777,243.778H750Z" transform="translate(-37.329 -6.221)" fill="#2fb173"/><path d="M868.777,243.778,750,125H868.777Z" transform="translate(-37.329 -6.221)" fill="#28ac79"/><path d="M875,125l118.78,118.779H875Z" transform="translate(-43.55 -6.221)" fill="#3cbe7e"/><path d="M0,250,118.779,368.779H0Z" transform="translate(0 -12.443)" fill="#197c6a"/><path d="M118.779,368.779,0,250H118.779Z" transform="translate(0 -12.443)" fill="#107170"/><path d="M125,250,243.779,368.779H125Z" transform="translate(-6.221 -12.443)" fill="#07566c"/><path d="M243.779,368.779,125,250H243.779Z" transform="translate(-6.221 -12.443)" fill="#05506f"/><path d="M250,250,368.779,368.779H250Z" transform="translate(-12.443 -12.443)" fill="#07506d"/><path d="M493.779,368.779,375,250H493.779Z" transform="translate(-18.664 -12.443)" fill="#44999f"/><path d="M500,250,618.779,368.779H500Z" transform="translate(-24.886 -12.443)" fill="#5fb3ad"/><path d="M618.779,368.779,500,250H618.779Z" transform="translate(-24.886 -12.443)" fill="#79c6c7"/><path d="M743.779,368.779,625,250H743.779Z" transform="translate(-31.107 -12.443)" fill="#6fc1c6"/><path d="M750,250,868.777,368.779H750Z" transform="translate(-37.329 -12.443)" fill="#47b696"/><path d="M868.777,368.779,750,250H868.777Z" transform="translate(-37.329 -12.443)" fill="#4eb5a1"/><path d="M875,250l118.78,118.779H875Z" transform="translate(-43.55 -12.443)" fill="#39b59c"/><path d="M993.778,368.779,875,250h118.78Z" transform="translate(-43.55 -12.443)" fill="#55bfac"/><path d="M118.779,493.779,0,375H118.779Z" transform="translate(0 -18.664)" fill="#3eac5c"/><path d="M125,375,243.779,493.779H125Z" transform="translate(-6.221 -18.664)" fill="#167975"/><path d="M250,375,368.779,493.779H250Z" transform="translate(-12.443 -18.664)" fill="#064f71"/><path d="M368.779,493.779,250,375H368.779Z" transform="translate(-12.443 -18.664)" fill="#075172"/><path d="M375,375,493.779,493.779H375Z" transform="translate(-18.664 -18.664)" fill="#2a768f"/><path d="M493.779,493.779,375,375H493.779Z" transform="translate(-18.664 -18.664)" fill="#3a919b"/><path d="M500,375,618.779,493.779H500Z" transform="translate(-24.886 -18.664)" fill="#6ec3bb"/><path d="M618.779,493.779,500,375H618.779Z" transform="translate(-24.886 -18.664)" fill="#68c1bb"/><path d="M743.779,493.779,625,375H743.779Z" transform="translate(-31.107 -18.664)" fill="#2d889c"/><path d="M868.777,493.779,750,375H868.777Z" transform="translate(-37.329 -18.664)" fill="#1c7298"/><path d="M875,375l118.78,118.779H875Z" transform="translate(-43.55 -18.664)" fill="#4597ac"/><path d="M250,500,368.779,618.779H250Z" transform="translate(-12.443 -24.886)" fill="#2d9869"/><path d="M375,500,493.779,618.779H375Z" transform="translate(-18.664 -24.886)" fill="#0f5673"/><path d="M493.779,618.779,375,500H493.779Z" transform="translate(-18.664 -24.886)" fill="#136678"/><path d="M500,500,618.779,618.779H500Z" transform="translate(-24.886 -24.886)" fill="#3c939b"/><path d="M618.779,618.779,500,500H618.779Z" transform="translate(-24.886 -24.886)" fill="#378f92"/><path d="M625,500,743.779,618.779H625Z" transform="translate(-31.107 -24.886)" fill="#56b1ad"/><path d="M743.779,618.779,625,500H743.779Z" transform="translate(-31.107 -24.886)" fill="#59afb0"/><path d="M750,500,868.777,618.779H750Z" transform="translate(-37.329 -24.886)" fill="#19858b"/><path d="M868.777,618.779,750,500H868.777Z" transform="translate(-37.329 -24.886)" fill="#1a8693"/><path d="M875,500l118.78,118.779H875Z" transform="translate(-43.55 -24.886)" fill="#0d6d8c"/><path d="M993.778,618.779,875,500h118.78Z" transform="translate(-43.55 -24.886)" fill="#137a93"/><path d="M618.779,743.779,500,625H618.779Z" transform="translate(-24.886 -31.107)" fill="#287a80"/><path d="M625,625,743.779,743.779H625Z" transform="translate(-31.107 -31.107)" fill="#47a89c"/><path d="M868.777,743.779,750,625H868.777Z" transform="translate(-37.329 -31.107)" fill="#3c9da7"/><path d="M875,625l118.78,118.779H875Z" transform="translate(-43.55 -31.107)" fill="#47a3ae"/><path d="M743.779,868.778,625,750H743.779Z" transform="translate(-31.107 -37.329)" fill="#318f5e"/><path d="M750,750,868.777,868.778H750Z" transform="translate(-37.329 -37.329)" fill="#248672"/><path d="M875,750l118.78,118.778H875Z" transform="translate(-43.55 -37.329)" fill="#2a8780"/><path d="M993.778,868.778,875,750h118.78Z" transform="translate(-43.55 -37.329)" fill="#19796a"/><path d="M750,875,868.777,993.778H750Z" transform="translate(-37.329 -43.55)" fill="#3b9b3d"/><path d="M875,875l118.78,118.779H875Z" transform="translate(-43.55 -43.55)" fill="#238b5b"/><path d="M993.778,993.778,875,875h118.78Z" transform="translate(-43.55 -43.55)" fill="#228659"/></g></svg>