<svg xmlns="http://www.w3.org/2000/svg" xmlns:xlink="http://www.w3.org/1999/xlink" width="220" height="160" viewBox="0 0 220 160"><defs><clipPath id="a"><rect width="54" height="2" fill="none"/></clipPath><clipPath id="b"><rect width="41" height="2" fill="none"/></clipPath><clipPath id="c"><rect width="53" height="2" fill="none"/></clipPath></defs><path d="M0,0H220V160H0Z" fill="#fff" opacity="0"/><path d="M470.518,469.839h4.7l-1.413-1.382-.015-.016a.937.937,0,0,1,.015-1.326.973.973,0,0,1,1.359,0l3.075,3.026a.937.937,0,0,1,.281.67v.053a.942.942,0,0,1-.281.672l-3.075,3.023a.971.971,0,0,1-1.361,0l-.013-.014a.937.937,0,0,1,.013-1.326l1.411-1.38h-4.692a1,1,0,1,1,0-2Z" transform="translate(-389.837 578.516) rotate(-90)" fill="#fff" stroke="rgba(0,0,0,0)" stroke-width="1" opacity="0.3"/><path d="M470.518,469.839h4.7l-1.413-1.382-.015-.016a.937.937,0,0,1,.015-1.326.973.973,0,0,1,1.359,0l3.075,3.026a.937.937,0,0,1,.281.67v.053a.942.942,0,0,1-.281.672l-3.075,3.023a.971.971,0,0,1-1.361,0l-.013-.014a.937.937,0,0,1,.013-1.326l1.411-1.38h-4.692a1,1,0,1,1,0-2Z" transform="translate(-352.838 514.517) rotate(-90)" fill="#fff" stroke="rgba(0,0,0,0)" stroke-width="1" opacity="0.3"/><path d="M470.518,469.839h4.7l-1.413-1.382-.015-.016a.937.937,0,0,1,.015-1.326.973.973,0,0,1,1.359,0l3.075,3.026a.937.937,0,0,1,.281.67v.053a.942.942,0,0,1-.281.672l-3.075,3.023a.971.971,0,0,1-1.361,0l-.013-.014a.937.937,0,0,1,.013-1.326l1.411-1.38h-4.692a1,1,0,1,1,0-2Z" transform="translate(-267.836 605.517) rotate(-90)" fill="#fff" stroke="rgba(0,0,0,0)" stroke-width="1" opacity="0.3"/><g transform="translate(10 14)" opacity="0"><g transform="translate(31 128)" opacity="0.6" clip-path="url(#a)"><g transform="translate(-679 -530)"><rect width="4" height="2" rx="1" transform="translate(679 530)" fill="#fff"/></g><g transform="translate(-672 -530)"><rect width="4" height="2" rx="1" transform="translate(679 530)" fill="#fff"/></g><g transform="translate(-665 -530)"><rect width="4" height="2" rx="1" transform="translate(679 530)" fill="#fff"/></g><g transform="translate(-658 -530)"><rect width="4" height="2" rx="1" transform="translate(679 530)" fill="#fff"/></g><g transform="translate(-651 -530)"><rect width="4" height="2" rx="1" transform="translate(679 530)" fill="#fff"/></g><g transform="translate(-644 -530)"><rect width="4" height="2" rx="1" transform="translate(679 530)" fill="#fff"/></g><g transform="translate(-637 -530)"><rect width="4" height="2" rx="1" transform="translate(679 530)" fill="#fff"/></g><g transform="translate(-630 -530)"><rect width="4" height="2" rx="1" transform="translate(679 530)" fill="#fff"/></g></g><g transform="translate(33 86) rotate(90)" opacity="0.6" clip-path="url(#b)"><g transform="translate(-679 -530)"><rect width="4" height="2" rx="1" transform="translate(679 530)" fill="#fff"/></g><g transform="translate(-672 -530)"><rect width="4" height="2" rx="1" transform="translate(679 530)" fill="#fff"/></g><g transform="translate(-665 -530)"><rect width="4" height="2" rx="1" transform="translate(679 530)" fill="#fff"/></g><g transform="translate(-658 -530)"><rect width="4" height="2" rx="1" transform="translate(679 530)" fill="#fff"/></g><g transform="translate(-651 -530)"><rect width="4" height="2" rx="1" transform="translate(679 530)" fill="#fff"/></g><g transform="translate(-644 -530)"><rect width="4" height="2" rx="1" transform="translate(679 530)" fill="#fff"/></g></g><g transform="translate(116 128)" opacity="0.6" clip-path="url(#c)"><g transform="translate(-679 -530)"><rect width="4" height="2" rx="1" transform="translate(679 530)" fill="#fff"/></g><g transform="translate(-672 -530)"><rect width="4" height="2" rx="1" transform="translate(679 530)" fill="#fff"/></g><g transform="translate(-665 -530)"><rect width="4" height="2" rx="1" transform="translate(679 530)" fill="#fff"/></g><g transform="translate(-658 -530)"><rect width="4" height="2" rx="1" transform="translate(679 530)" fill="#fff"/></g><g transform="translate(-651 -530)"><rect width="4" height="2" rx="1" transform="translate(679 530)" fill="#fff"/></g><g transform="translate(-644 -530)"><rect width="4" height="2" rx="1" transform="translate(679 530)" fill="#fff"/></g><g transform="translate(-637 -530)"><rect width="4" height="2" rx="1" transform="translate(679 530)" fill="#fff"/></g><g transform="translate(-630 -530)"><rect width="4" height="2" rx="1" transform="translate(679 530)" fill="#fff"/></g></g><g transform="translate(169 86) rotate(90)" opacity="0.6" clip-path="url(#b)"><g transform="translate(-679 -530)"><rect width="4" height="2" rx="1" transform="translate(679 530)" fill="#fff"/></g><g transform="translate(-672 -530)"><rect width="4" height="2" rx="1" transform="translate(679 530)" fill="#fff"/></g><g transform="translate(-665 -530)"><rect width="4" height="2" rx="1" transform="translate(679 530)" fill="#fff"/></g><g transform="translate(-658 -530)"><rect width="4" height="2" rx="1" transform="translate(679 530)" fill="#fff"/></g><g transform="translate(-651 -530)"><rect width="4" height="2" rx="1" transform="translate(679 530)" fill="#fff"/></g><g transform="translate(-644 -530)"><rect width="4" height="2" rx="1" transform="translate(679 530)" fill="#fff"/></g></g></g><g transform="translate(-1043 -208)"><path d="M10,0H74L84,10H0Z" transform="translate(1044 246)" fill="#3f51b5"/><path d="M6,0H48L70,22V78a6,6,0,0,1-6,6H6a6,6,0,0,1-6-6V6A6,6,0,0,1,6,0Z" transform="translate(1051 216)" fill="#e6e6e6"/><path d="M0,0,22,22H4a4,4,0,0,1-4-4Z" transform="translate(1099 216)" fill="#b3b3b3"/><path d="M0,0H84a0,0,0,0,1,0,0V28a4,4,0,0,1-4,4H4a4,4,0,0,1-4-4V0A0,0,0,0,1,0,0Z" transform="translate(1044 256)" fill="#5c6edb"/><text transform="translate(1086 278)" fill="#fff" font-size="17" font-family="SegoeUI-Bold, Segoe UI" font-weight="700" letter-spacing="0.06em"><tspan x="-16.758" y="0">CSV</tspan></text></g><g transform="translate(-909 -208)"><path d="M10,0H74L84,10H0Z" transform="translate(1044 246)" fill="#1b7343"/><path d="M6,0H48L70,22V78a6,6,0,0,1-6,6H6a6,6,0,0,1-6-6V6A6,6,0,0,1,6,0Z" transform="translate(1051 216)" fill="#e6e6e6"/><path d="M0,0,22,22H4a4,4,0,0,1-4-4Z" transform="translate(1099 216)" fill="#b3b3b3"/><path d="M0,0H84a0,0,0,0,1,0,0V28a4,4,0,0,1-4,4H4a4,4,0,0,1-4-4V0A0,0,0,0,1,0,0Z" transform="translate(1044 256)" fill="#199d58"/><text transform="translate(1086 278)" fill="#fff" font-size="17" font-family="SegoeUI-Bold, Segoe UI" font-weight="700" letter-spacing="0.06em"><tspan x="-21.78" y="0">XLSX</tspan></text></g><g transform="translate(-601 -1016.414)" opacity="0.8"><path d="M707.818,1157.01l2.182-2.182v6.53a1,1,0,0,0,2,0v-6.53l2.182,2.182a1,1,0,1,0,1.414-1.414l-3.889-3.889a1,1,0,0,0-1.414,0L706.4,1155.6a1,1,0,0,0,1.414,1.414Z" fill="#bfbfbf" stroke="rgba(0,0,0,0)" stroke-width="1"/><path d="M718,1160.747a1,1,0,0,0-1,1v3.111a.557.557,0,0,1-.556.556H705.559a.561.561,0,0,1-.559-.556v-3.111a1,1,0,0,0-2,0v3.114a2.568,2.568,0,0,0,2.556,2.553h10.888a2.558,2.558,0,0,0,2.556-2.556v-3.111A1,1,0,0,0,718,1160.747Z" fill="#bfbfbf" stroke="rgba(0,0,0,0)" stroke-width="1"/></g><path d="M137,19.432a1,1,0,0,1,1,1v2a1,1,0,1,1-2,0v-2A1,1,0,0,1,137,19.432Zm0,7a1,1,0,0,1,1,1v2a1,1,0,1,1-2,0v-2A1,1,0,0,1,137,26.432Zm0,7a1,1,0,0,1,1,1v2a1,1,0,1,1-2,0v-2A1,1,0,0,1,137,33.432Zm0,7a1,1,0,0,1,1,1v2a1,1,0,1,1-2,0v-2A1,1,0,0,1,137,40.432Zm0,7a1,1,0,0,1,1,1v2a1,1,0,1,1-2,0v-2A1,1,0,0,1,137,47.432Zm0,7a1,1,0,0,1,1,1v.578s0,0,0,0,0,.007,0,.01v.024h0s0,.007,0,.01v.011s0,0,0,0v.021h0V56.1s0,0,0,0v.347h0v.032l0,.031v.013h0c0,.03,0,.059-.006.089h0q-.028.368-.089.726h0l0,.011v0l0,.01v0l0,.017v.041a1,1,0,0,1-1.968-.355A6.069,6.069,0,0,0,136,56v-.568A1,1,0,0,1,137,54.432Zm-2.143,5.609a1,1,0,0,1,.694,1.72,8.042,8.042,0,0,1-.667.576h0l-.018.014h0l-.006,0h0l-.012.009h0l0,0h0l0,0h0l-.006,0h0l0,0-.005,0,0,0,0,0-.006,0-.005,0,0,0-.007.005-.005,0h0l0,0h0l-.014.01h0l0,0h0a8.009,8.009,0,0,1-.806.525,1,1,0,0,1-.988-1.739,6.032,6.032,0,0,0,1.2-.9A1,1,0,0,1,134.857,60.041ZM127.136,62h2a1,1,0,0,1,0,2h-2a1,1,0,0,1,0-2Zm-7,0h2a1,1,0,0,1,0,2h-2a1,1,0,0,1,0-2Zm-7,0h2a1,1,0,0,1,0,2h-2a1,1,0,0,1,0-2Zm-7,0h2a1,1,0,0,1,0,2h-2a1,1,0,0,1,0-2Zm-7,0h2a1,1,0,0,1,0,2h-2a1,1,0,0,1,0-2Zm-7,0h2a1,1,0,0,1,0,2h-2a1,1,0,0,1,0-2Zm-7,0h2a1,1,0,0,1,0,2h-2a1,1,0,0,1,0-2Zm-35,0h2a1,1,0,0,1,0,2h-2a1,1,0,0,1,0-2Zm-7,0h2a1,1,0,0,1,0,2h-2a1,1,0,0,1,0-2Zm-7,0h2a1,1,0,0,1,0,2h-2a1,1,0,0,1,0-2Zm-7,0h2a1,1,0,0,1,0,2h-2a1,1,0,0,1,0-2Zm-7,0h2a1,1,0,0,1,0,2h-2a1,1,0,0,1,0-2Zm-7,0h2a1,1,0,0,1,0,2h-2a1,1,0,0,1,0-2Zm-7,0h2a1,1,0,0,1,0,2h-2a1,1,0,0,1,0-2ZM2.7,59.578a1,1,0,0,1,.757.346,6.046,6.046,0,0,0,1.114,1,1,1,0,0,1-1.142,1.642l-.1-.072h0l0,0-.005,0,0,0,0,0-.006,0-.006,0-.005,0h0l-.012-.009h0l-.006,0h0a8.047,8.047,0,0,1-1.329-1.226A1,1,0,0,1,2.7,59.578ZM1,53.7a1,1,0,0,1,1,1V56c0,.177.008.355.023.529A1,1,0,0,1,.031,56.7q-.022-.247-.028-.5H0v-.031H0V56.1s0,0,0,0V56.09s0,0,0,0v-.01s0-.006,0-.009v-.014s0-.006,0-.009v0s0-.006,0-.009H0s0-.006,0-.01v0s0-.006,0-.01H0V54.7A1,1,0,0,1,1,53.7Zm0-7a1,1,0,0,1,1,1v2a1,1,0,0,1-2,0v-2A1,1,0,0,1,1,46.7Zm0-7a1,1,0,0,1,1,1v2a1,1,0,0,1-2,0v-2A1,1,0,0,1,1,39.7Zm0-7a1,1,0,0,1,1,1v2a1,1,0,0,1-2,0v-2A1,1,0,0,1,1,32.7Zm0-7a1,1,0,0,1,1,1v2a1,1,0,0,1-2,0v-2A1,1,0,0,1,1,25.7Zm0-7a1,1,0,0,1,1,1v2a1,1,0,0,1-2,0v-2A1,1,0,0,1,1,18.7Z" transform="translate(41 80)" fill="#fff" opacity="0.4"/><g transform="matrix(0.966, 0.259, -0.259, 0.966, -137.29, -39.109)" opacity="0.2"><path d="M308.765,70.3a1,1,0,1,0,1,1A1,1,0,0,0,308.765,70.3Z" fill="#fff" stroke="rgba(0,0,0,0)" stroke-width="1"/><path d="M308.765,77.368a1,1,0,1,0,1,1A1,1,0,0,0,308.765,77.368Z" fill="#fff" stroke="rgba(0,0,0,0)" stroke-width="1"/><path d="M308.007,74.126a1,1,0,1,0,0,1.414A1,1,0,0,0,308.007,74.126Z" fill="#fff" stroke="rgba(0,0,0,0)" stroke-width="1"/><path d="M315.836,72.3a1,1,0,1,0-1-1A1,1,0,0,0,315.836,72.3Z" fill="#fff" stroke="rgba(0,0,0,0)" stroke-width="1"/><path d="M312.3,78.833a1,1,0,1,0,.706.292A1,1,0,0,0,312.3,78.833Z" fill="#fff" stroke="rgba(0,0,0,0)" stroke-width="1"/><path d="M318.008,74.126a1,1,0,1,0,0,1.414A1,1,0,0,0,318.008,74.126Z" fill="#fff" stroke="rgba(0,0,0,0)" stroke-width="1"/><path d="M315.836,77.368a1,1,0,1,0,1,1A1,1,0,0,0,315.836,77.368Z" fill="#fff" stroke="rgba(0,0,0,0)" stroke-width="1"/><path d="M312.3,68.832a1,1,0,1,0,.706.293A1,1,0,0,0,312.3,68.832Z" fill="#fff" stroke="rgba(0,0,0,0)" stroke-width="1"/></g><g transform="matrix(0.966, 0.259, -0.259, 0.966, -189.942, -140.109)" opacity="0.2"><path d="M308.765,70.3a1,1,0,1,0,1,1A1,1,0,0,0,308.765,70.3Z" fill="#fff" stroke="rgba(0,0,0,0)" stroke-width="1"/><path d="M308.765,77.368a1,1,0,1,0,1,1A1,1,0,0,0,308.765,77.368Z" fill="#fff" stroke="rgba(0,0,0,0)" stroke-width="1"/><path d="M308.007,74.126a1,1,0,1,0,0,1.414A1,1,0,0,0,308.007,74.126Z" fill="#fff" stroke="rgba(0,0,0,0)" stroke-width="1"/><path d="M315.836,72.3a1,1,0,1,0-1-1A1,1,0,0,0,315.836,72.3Z" fill="#fff" stroke="rgba(0,0,0,0)" stroke-width="1"/><path d="M312.3,78.833a1,1,0,1,0,.706.292A1,1,0,0,0,312.3,78.833Z" fill="#fff" stroke="rgba(0,0,0,0)" stroke-width="1"/><path d="M318.008,74.126a1,1,0,1,0,0,1.414A1,1,0,0,0,318.008,74.126Z" fill="#fff" stroke="rgba(0,0,0,0)" stroke-width="1"/><path d="M315.836,77.368a1,1,0,1,0,1,1A1,1,0,0,0,315.836,77.368Z" fill="#fff" stroke="rgba(0,0,0,0)" stroke-width="1"/><path d="M312.3,68.832a1,1,0,1,0,.706.293A1,1,0,0,0,312.3,68.832Z" fill="#fff" stroke="rgba(0,0,0,0)" stroke-width="1"/></g><g transform="matrix(0.966, 0.259, -0.259, 0.966, -268.29, -23.763)" opacity="0.2"><path d="M308.765,70.3a1,1,0,1,0,1,1A1,1,0,0,0,308.765,70.3Z" fill="#fff" stroke="rgba(0,0,0,0)" stroke-width="1"/><path d="M308.765,77.368a1,1,0,1,0,1,1A1,1,0,0,0,308.765,77.368Z" fill="#fff" stroke="rgba(0,0,0,0)" stroke-width="1"/><path d="M308.007,74.126a1,1,0,1,0,0,1.414A1,1,0,0,0,308.007,74.126Z" fill="#fff" stroke="rgba(0,0,0,0)" stroke-width="1"/><path d="M315.836,72.3a1,1,0,1,0-1-1A1,1,0,0,0,315.836,72.3Z" fill="#fff" stroke="rgba(0,0,0,0)" stroke-width="1"/><path d="M312.3,78.833a1,1,0,1,0,.706.292A1,1,0,0,0,312.3,78.833Z" fill="#fff" stroke="rgba(0,0,0,0)" stroke-width="1"/><path d="M318.008,74.126a1,1,0,1,0,0,1.414A1,1,0,0,0,318.008,74.126Z" fill="#fff" stroke="rgba(0,0,0,0)" stroke-width="1"/><path d="M315.836,77.368a1,1,0,1,0,1,1A1,1,0,0,0,315.836,77.368Z" fill="#fff" stroke="rgba(0,0,0,0)" stroke-width="1"/><path d="M312.3,68.832a1,1,0,1,0,.706.293A1,1,0,0,0,312.3,68.832Z" fill="#fff" stroke="rgba(0,0,0,0)" stroke-width="1"/></g></svg>