<svg xmlns="http://www.w3.org/2000/svg" xmlns:xlink="http://www.w3.org/1999/xlink" width="220" height="160" viewBox="0 0 220 160"><defs><clipPath id="a"><rect width="53" height="2" fill="none"/></clipPath><clipPath id="b"><rect width="41" height="2" fill="none"/></clipPath></defs><path d="M0,0H220V160H0Z" fill="#fff" opacity="0"/><path d="M470.518,469.839h4.7l-1.413-1.382-.015-.016a.937.937,0,0,1,.015-1.326.973.973,0,0,1,1.359,0l3.075,3.026a.937.937,0,0,1,.281.67v.053a.942.942,0,0,1-.281.672l-3.075,3.023a.971.971,0,0,1-1.361,0l-.013-.014a.937.937,0,0,1,.013-1.326l1.411-1.38h-4.692a1,1,0,1,1,0-2Z" transform="translate(-364.837 503.517) rotate(-90)" fill="#fff" stroke="rgba(0,0,0,0)" stroke-width="1" opacity="0.3"/><g transform="translate(10 14)" opacity="0"><g transform="translate(116 128)" opacity="0.6" clip-path="url(#a)"><g transform="translate(-679 -530)"><rect width="4" height="2" rx="1" transform="translate(679 530)" fill="#fff"/></g><g transform="translate(-672 -530)"><rect width="4" height="2" rx="1" transform="translate(679 530)" fill="#fff"/></g><g transform="translate(-665 -530)"><rect width="4" height="2" rx="1" transform="translate(679 530)" fill="#fff"/></g><g transform="translate(-658 -530)"><rect width="4" height="2" rx="1" transform="translate(679 530)" fill="#fff"/></g><g transform="translate(-651 -530)"><rect width="4" height="2" rx="1" transform="translate(679 530)" fill="#fff"/></g><g transform="translate(-644 -530)"><rect width="4" height="2" rx="1" transform="translate(679 530)" fill="#fff"/></g><g transform="translate(-637 -530)"><rect width="4" height="2" rx="1" transform="translate(679 530)" fill="#fff"/></g><g transform="translate(-630 -530)"><rect width="4" height="2" rx="1" transform="translate(679 530)" fill="#fff"/></g></g><g transform="translate(169 86) rotate(90)" opacity="0.6" clip-path="url(#b)"><g transform="translate(-679 -530)"><rect width="4" height="2" rx="1" transform="translate(679 530)" fill="#fff"/></g><g transform="translate(-672 -530)"><rect width="4" height="2" rx="1" transform="translate(679 530)" fill="#fff"/></g><g transform="translate(-665 -530)"><rect width="4" height="2" rx="1" transform="translate(679 530)" fill="#fff"/></g><g transform="translate(-658 -530)"><rect width="4" height="2" rx="1" transform="translate(679 530)" fill="#fff"/></g><g transform="translate(-651 -530)"><rect width="4" height="2" rx="1" transform="translate(679 530)" fill="#fff"/></g><g transform="translate(-644 -530)"><rect width="4" height="2" rx="1" transform="translate(679 530)" fill="#fff"/></g></g></g><g transform="translate(10 12)" opacity="0.4"><rect width="4" height="2" rx="1" transform="translate(101 86) rotate(90)" fill="#fff"/><rect width="4" height="2" rx="1" transform="translate(101 93) rotate(90)" fill="#fff"/><rect width="4" height="2" rx="1" transform="translate(101 100) rotate(90)" fill="#fff"/><rect width="4" height="2" rx="1" transform="translate(101 107) rotate(90)" fill="#fff"/><rect width="4" height="2" rx="1" transform="translate(101 114) rotate(90)" fill="#fff"/></g><g transform="translate(-976 -208)"><path d="M10,0H74L84,10H0Z" transform="translate(1044 246)" fill="#822d84"/><path d="M6,0H48L70,22V78a6,6,0,0,1-6,6H6a6,6,0,0,1-6-6V6A6,6,0,0,1,6,0Z" transform="translate(1051 216)" fill="#e6e6e6"/><path d="M0,0,22,22H4a4,4,0,0,1-4-4Z" transform="translate(1099 216)" fill="#b3b3b3"/><path d="M0,0H84a0,0,0,0,1,0,0V28a4,4,0,0,1-4,4H4a4,4,0,0,1-4-4V0A0,0,0,0,1,0,0Z" transform="translate(1044 256)" fill="#a249a5"/><text transform="translate(1086 278)" fill="#fff" font-size="17" font-family="SegoeUI-Bold, Segoe UI" font-weight="700" letter-spacing="0.06em"><tspan x="-23.241" y="0">JSON</tspan></text></g><g transform="translate(-364.815 -858.002)"><path d="M474.816,1007c-5.011,0-7.776-5.32-7.892-5.546a1,1,0,0,1,0-.908c.116-.226,2.881-5.546,7.892-5.546s7.775,5.32,7.891,5.546a1,1,0,0,1,0,.908C482.591,1001.682,479.826,1007,474.816,1007Zm-5.844-6c.709,1.136,2.8,4,5.844,4s5.134-2.864,5.843-4c-.709-1.136-2.8-4-5.843-4S469.681,999.866,468.972,1001Z" fill="#9e9f9f"/><path d="M474.816,1003.877a2.875,2.875,0,1,1,2.909-2.875A2.9,2.9,0,0,1,474.816,1003.877Zm0-3.75a.876.876,0,1,0,.909.875A.894.894,0,0,0,474.816,1000.127Z" fill="#9e9f9f"/></g><g transform="translate(37.85 30.833)" opacity="0.3"><path d="M213.11,260.978l-2-2.122a.793.793,0,0,0-1.169,0,.918.918,0,0,0,0,1.243l1.411,1.5-1.411,1.5a.918.918,0,0,0,0,1.243.793.793,0,0,0,1.169,0l2-2.122A.917.917,0,0,0,213.11,260.978Z" transform="translate(-204.051 -258.599)" fill="#fff" stroke="rgba(0,0,0,0)" stroke-width="1"/><path d="M208.459,258.856a.794.794,0,0,0-1.17,0l-2,2.122a.917.917,0,0,0,0,1.242l2,2.122a.794.794,0,0,0,1.17,0,.918.918,0,0,0,0-1.243l-1.412-1.5,1.412-1.5A.918.918,0,0,0,208.459,258.856Z" transform="translate(-205.051 -258.599)" fill="#fff" stroke="rgba(0,0,0,0)" stroke-width="1"/></g><g transform="translate(193.85 61.833)" opacity="0.3"><path d="M213.11,260.978l-2-2.122a.793.793,0,0,0-1.169,0,.918.918,0,0,0,0,1.243l1.411,1.5-1.411,1.5a.918.918,0,0,0,0,1.243.793.793,0,0,0,1.169,0l2-2.122A.917.917,0,0,0,213.11,260.978Z" transform="translate(-204.051 -258.599)" fill="#fff" stroke="rgba(0,0,0,0)" stroke-width="1"/><path d="M208.459,258.856a.794.794,0,0,0-1.17,0l-2,2.122a.917.917,0,0,0,0,1.242l2,2.122a.794.794,0,0,0,1.17,0,.918.918,0,0,0,0-1.243l-1.412-1.5,1.412-1.5A.918.918,0,0,0,208.459,258.856Z" transform="translate(-205.051 -258.599)" fill="#fff" stroke="rgba(0,0,0,0)" stroke-width="1"/></g><g transform="translate(-36.994 -220.542)"><path d="M221.994,333.033v-1.291a1,1,0,0,0-.318-.731l-4.5-4.2a1,1,0,0,0-.682-.269h-6a2.455,2.455,0,0,0-2.5,2.4v11.2a2.462,2.462,0,0,0,2.5,2.4h3.694a1,1,0,0,0,0-2v0h-3.694a.469.469,0,0,1-.5-.4v-11.2a.466.466,0,0,1,.5-.4h4v3.2a1,1,0,0,0,1,1h4.5v.287a1,1,0,0,0,2,0Zm-5.5-2.287v-1.9l1.963,1.9Z" fill="#626363"/><path d="M223.752,337.92l-2-2.121a.793.793,0,0,0-1.169,0,.918.918,0,0,0,0,1.243l1.411,1.5-1.411,1.5a.917.917,0,0,0,0,1.242.793.793,0,0,0,1.169,0l2-2.121A.918.918,0,0,0,223.752,337.92Z" fill="#626363"/><path d="M218.752,335.8a.794.794,0,0,0-1.17,0l-2,2.121a.918.918,0,0,0,0,1.243l2,2.121a.793.793,0,0,0,1.17,0,.917.917,0,0,0,0-1.242l-1.412-1.5,1.412-1.5A.918.918,0,0,0,218.752,335.8Z" fill="#626363"/></g><g transform="translate(-527.303 -669.897)" opacity="0.3"><path d="M546.3,755.9a1,1,0,0,0-1,1v3a1,1,0,0,0,2,0v-3A1,1,0,0,0,546.3,755.9Z" fill="#fff" stroke="rgba(0,0,0,0)" stroke-width="1"/><path d="M555.3,754.9a2,2,0,0,1-2-2v-1a3,3,0,0,0-3-3,1,1,0,0,0,0,2,1,1,0,0,1,1,1v1a3.947,3.947,0,0,1,0,6v1a1,1,0,0,1-1,1,1,1,0,0,0,0,2,3,3,0,0,0,3-3v-1a2,2,0,0,1,2-2,1,1,0,0,0,0-2Z" fill="#fff" stroke="rgba(0,0,0,0)" stroke-width="1"/><circle cx="1.5" cy="1.5" r="1.5" transform="translate(544.803 751.897)" fill="#fff" stroke="rgba(0,0,0,0)" stroke-width="1"/><path d="M541.3,751.9a1,1,0,0,1,1-1,1,1,0,0,0,0-2,3,3,0,0,0-3,3v1a2,2,0,0,1-2,2,1,1,0,0,0,0,2,2,2,0,0,1,2,2v1a3,3,0,0,0,3,3,1,1,0,0,0,0-2,1,1,0,0,1-1-1v-1a3.947,3.947,0,0,1,0-6Z" fill="#fff" stroke="rgba(0,0,0,0)" stroke-width="1"/></g><g transform="translate(-386.403 -612.49)" opacity="0.3"><path d="M446.993,726.027a1,1,0,1,0,.707,1.225A1,1,0,0,0,446.993,726.027Z" fill="#fff" stroke="rgba(0,0,0,0)" stroke-width="1"/><path d="M445.162,732.855a1,1,0,1,0,.707,1.225A1,1,0,0,0,445.162,732.855Z" fill="#fff" stroke="rgba(0,0,0,0)" stroke-width="1"/><path d="M445.269,729.527a1,1,0,1,0-.366,1.366h0A1,1,0,0,0,445.269,729.527Z" fill="#fff" stroke="rgba(0,0,0,0)" stroke-width="1"/><path d="M453.3,729.791a1,1,0,1,0-.707-1.225A1,1,0,0,0,453.3,729.791Z" fill="#fff" stroke="rgba(0,0,0,0)" stroke-width="1"/><path d="M448.2,735.186a1,1,0,1,0,.607.465A1,1,0,0,0,448.2,735.186Z" fill="#fff" stroke="rgba(0,0,0,0)" stroke-width="1"/><path d="M454.93,732.117a1,1,0,1,0-.366,1.366h0A1,1,0,0,0,454.93,732.117Z" fill="#fff" stroke="rgba(0,0,0,0)" stroke-width="1"/><path d="M451.992,734.686a1,1,0,1,0,.707,1.225A1,1,0,0,0,451.992,734.686Z" fill="#fff" stroke="rgba(0,0,0,0)" stroke-width="1"/><path d="M450.788,725.525a1,1,0,1,0,.606.466A1,1,0,0,0,450.788,725.525Z" fill="#fff" stroke="rgba(0,0,0,0)" stroke-width="1"/></g><g transform="translate(-267.233 -712.152)" opacity="0.3"><path d="M446.993,726.027a1,1,0,1,0,.707,1.225A1,1,0,0,0,446.993,726.027Z" fill="#fff" stroke="rgba(0,0,0,0)" stroke-width="1"/><path d="M445.162,732.855a1,1,0,1,0,.707,1.225A1,1,0,0,0,445.162,732.855Z" fill="#fff" stroke="rgba(0,0,0,0)" stroke-width="1"/><path d="M445.269,729.527a1,1,0,1,0-.366,1.366h0A1,1,0,0,0,445.269,729.527Z" fill="#fff" stroke="rgba(0,0,0,0)" stroke-width="1"/><path d="M453.3,729.791a1,1,0,1,0-.707-1.225A1,1,0,0,0,453.3,729.791Z" fill="#fff" stroke="rgba(0,0,0,0)" stroke-width="1"/><path d="M448.2,735.186a1,1,0,1,0,.607.465A1,1,0,0,0,448.2,735.186Z" fill="#fff" stroke="rgba(0,0,0,0)" stroke-width="1"/><path d="M454.93,732.117a1,1,0,1,0-.366,1.366h0A1,1,0,0,0,454.93,732.117Z" fill="#fff" stroke="rgba(0,0,0,0)" stroke-width="1"/><path d="M451.992,734.686a1,1,0,1,0,.707,1.225A1,1,0,0,0,451.992,734.686Z" fill="#fff" stroke="rgba(0,0,0,0)" stroke-width="1"/><path d="M450.788,725.525a1,1,0,1,0,.606.466A1,1,0,0,0,450.788,725.525Z" fill="#fff" stroke="rgba(0,0,0,0)" stroke-width="1"/></g></svg>