<svg xmlns="http://www.w3.org/2000/svg" width="126.962" height="22" viewBox="0 0 126.962 22"><g transform="translate(-449 -482.724)"><path d="M4.656-11.375h2.3V-3.5A3.764,3.764,0,0,1,6.031-.844a3.084,3.084,0,0,1-2.375,1,3.159,3.159,0,0,1-2.43-.93A3.645,3.645,0,0,1,.359-3.359h2.3q0,1.609.992,1.609t1-1.859ZM16.763-2.984a1.425,1.425,0,0,0-.355-1.051,4.093,4.093,0,0,0-1.293-.738,6.025,6.025,0,0,1-2.461-1.52,3.054,3.054,0,0,1-.75-2.059,2.886,2.886,0,0,1,1.02-2.309,3.847,3.847,0,0,1,2.59-.871,3.878,3.878,0,0,1,1.867.441,3.062,3.062,0,0,1,1.262,1.246,3.738,3.738,0,0,1,.441,1.828H16.794a1.886,1.886,0,0,0-.34-1.215,1.19,1.19,0,0,0-.98-.418,1.228,1.228,0,0,0-.937.355,1.336,1.336,0,0,0-.336.957,1.179,1.179,0,0,0,.375.848A4.312,4.312,0,0,0,15.9-6.7a5.691,5.691,0,0,1,2.418,1.477A3.29,3.29,0,0,1,19.075-3,2.936,2.936,0,0,1,18.13-.68a3.742,3.742,0,0,1-2.57.836A4.426,4.426,0,0,1,13.552-.3a3.4,3.4,0,0,1-1.418-1.3,3.767,3.767,0,0,1-.512-1.992h2.3a2.173,2.173,0,0,0,.383,1.43,1.567,1.567,0,0,0,1.25.445Q16.762-1.711,16.763-2.984Zm15.044-1.68a5.306,5.306,0,0,1-1.082,3.555,3.74,3.74,0,0,1-3,1.266A3.783,3.783,0,0,1,24.712-1.1,5.228,5.228,0,0,1,23.6-4.609V-6.555a5.593,5.593,0,0,1,1.086-3.66A3.7,3.7,0,0,1,27.7-11.531,3.712,3.712,0,0,1,30.7-10.238a5.515,5.515,0,0,1,1.109,3.629ZM29.5-6.57a4.671,4.671,0,0,0-.437-2.289,1.464,1.464,0,0,0-1.359-.75,1.469,1.469,0,0,0-1.352.723,4.439,4.439,0,0,0-.453,2.2v2.023a4.23,4.23,0,0,0,.445,2.2,1.511,1.511,0,0,0,1.375.707,1.472,1.472,0,0,0,1.336-.691A4.148,4.148,0,0,0,29.5-4.594ZM44.608,0h-2.3L38.952-7.461V0h-2.3V-11.375h2.3l3.367,7.469v-7.469h2.289Z" transform="translate(531.355 499.724)" fill="#fff"/><g transform="translate(5.714)"><path d="M360.286-721.276h-22v-22h22v22Zm-11.055-14.7a.835.835,0,0,1,.753.429,2.3,2.3,0,0,1,.262,1.188,2.868,2.868,0,0,1-.277,1.175,8.536,8.536,0,0,1-.863,1.426l-3.078,3.914v1.563h6.7v-1.836h-3.867l1.461-2.086a12.074,12.074,0,0,0,1.684-2.434,4.579,4.579,0,0,0,.464-1.949,3.243,3.243,0,0,0-.84-2.387,3.209,3.209,0,0,0-2.363-.84,3.353,3.353,0,0,0-1.777.481,3.256,3.256,0,0,0-1.219,1.347,4.244,4.244,0,0,0-.434,1.914h2.219a2.643,2.643,0,0,1,.316-1.406A.974.974,0,0,1,349.232-735.971Z" transform="translate(161.714 1226)" fill="#fff" opacity="0.8"/></g><path d="M6.789-4.922H3.211v3.016H7.445V0H.914V-11.375H7.43v1.914H3.211v2.688H6.789Zm8.739-2.547,1.531-3.906h2.633L17.02-5.734,19.755,0H17.091L15.528-3.977,13.973,0H11.309l2.734-5.734-2.68-5.641H14Zm16.106,3.68A4.254,4.254,0,0,1,30.541-.844a3.863,3.863,0,0,1-2.844,1,3.583,3.583,0,0,1-2.957-1.27,5.626,5.626,0,0,1-1.027-3.621V-6.648a5.481,5.481,0,0,1,1.063-3.613,3.641,3.641,0,0,1,2.953-1.27,3.666,3.666,0,0,1,2.824,1.039,4.725,4.725,0,0,1,1.1,2.984h-2.3a3.064,3.064,0,0,0-.371-1.66,1.464,1.464,0,0,0-1.246-.457,1.394,1.394,0,0,0-1.3.645,4.507,4.507,0,0,0-.406,2.121v2.148A4.958,4.958,0,0,0,26.4-2.383a1.392,1.392,0,0,0,1.3.633,1.5,1.5,0,0,0,1.25-.441,2.907,2.907,0,0,0,.391-1.6ZM42.123-4.922H38.545v3.016H42.78V0H36.248V-11.375h6.516v1.914H38.545v2.688h3.578ZM49.6-1.906h4.031V0H47.3V-11.375h2.3Z" transform="translate(448.086 499.724)" fill="#fff"/></g></svg>