<svg xmlns="http://www.w3.org/2000/svg" width="208" height="36.001" viewBox="0 0 208 36.001"><path d="M7.395-11.273h3.764V1.614A6.159,6.159,0,0,1,9.645,5.96,5.047,5.047,0,0,1,5.758,7.6,5.169,5.169,0,0,1,1.782,6.075,5.965,5.965,0,0,1,.363,1.845H4.127q0,2.633,1.623,2.633T7.387,1.435ZM27.207,2.458a2.332,2.332,0,0,0-.581-1.72A6.7,6.7,0,0,0,24.51-.469a9.859,9.859,0,0,1-4.027-2.487,5,5,0,0,1-1.227-3.369A4.723,4.723,0,0,1,20.925-10.1a6.3,6.3,0,0,1,4.238-1.425,6.346,6.346,0,0,1,3.055.722,5.011,5.011,0,0,1,2.065,2.039A6.117,6.117,0,0,1,31-5.778H27.258A3.086,3.086,0,0,0,26.7-7.766a1.947,1.947,0,0,0-1.6-.684,2.009,2.009,0,0,0-1.533.581,2.186,2.186,0,0,0-.55,1.566,1.929,1.929,0,0,0,.614,1.388,7.056,7.056,0,0,0,2.167,1.293,9.313,9.313,0,0,1,3.957,2.417A5.384,5.384,0,0,1,30.99,2.432a4.8,4.8,0,0,1-1.546,3.8A6.123,6.123,0,0,1,25.238,7.6a7.243,7.243,0,0,1-3.286-.746,5.564,5.564,0,0,1-2.32-2.127,6.164,6.164,0,0,1-.838-3.26h3.764a3.556,3.556,0,0,0,.627,2.34,2.564,2.564,0,0,0,2.046.728Q27.205,4.541,27.207,2.458ZM51.825-.291a8.683,8.683,0,0,1-1.771,5.817A6.12,6.12,0,0,1,45.145,7.6a6.191,6.191,0,0,1-4.93-2.057A8.555,8.555,0,0,1,38.395-.2V-3.385a9.152,9.152,0,0,1,1.777-5.989A6.055,6.055,0,0,1,45.1-11.528a6.074,6.074,0,0,1,4.909,2.116,9.025,9.025,0,0,1,1.815,5.939ZM48.05-3.41a7.644,7.644,0,0,0-.715-3.746,2.4,2.4,0,0,0-2.224-1.227A2.4,2.4,0,0,0,42.9-7.2a7.264,7.264,0,0,0-.741,3.6v3.31a6.922,6.922,0,0,0,.728,3.6,2.473,2.473,0,0,0,2.25,1.157,2.409,2.409,0,0,0,2.186-1.131A6.788,6.788,0,0,0,48.05-.176ZM72.773,7.341H69.009L63.517-4.868V7.341H59.753V-11.273h3.764L69.027.949V-11.273h3.746Z" transform="translate(135.228 20.478)" fill="#fff"/><g transform="translate(92.935)"><path d="M374.287-707.275h-36v-36h36ZM356.2-731.33a1.367,1.367,0,0,1,1.232.7,3.764,3.764,0,0,1,.429,1.944,4.691,4.691,0,0,1-.453,1.922,13.963,13.963,0,0,1-1.412,2.334l-5.037,6.4v2.558h10.964v-3h-6.328l2.391-3.414a19.76,19.76,0,0,0,2.756-3.983,7.493,7.493,0,0,0,.759-3.189,5.307,5.307,0,0,0-1.375-3.906,5.251,5.251,0,0,0-3.867-1.375,5.487,5.487,0,0,0-2.908.787,5.329,5.329,0,0,0-1.995,2.2,6.945,6.945,0,0,0-.71,3.132h3.631a4.325,4.325,0,0,1,.517-2.3,1.594,1.594,0,0,1,1.407-.808Z" transform="translate(-338.286 743.276)" fill="#fff" opacity="0.8"/></g><path d="M10.528-.71H4.673V4.225H11.6V7.344H.914V-11.27H11.577v3.132h-6.9v4.4h5.855Zm14.3-4.168,2.505-6.392h4.309L27.27-2.039l4.476,9.383H27.386L24.828.836,22.284,7.344H17.924L22.4-2.039,18.013-11.27h4.315ZM51.184,1.144A6.961,6.961,0,0,1,49.4,5.963,6.321,6.321,0,0,1,44.742,7.6,5.863,5.863,0,0,1,39.9,5.521,9.206,9.206,0,0,1,38.222-.4v-3.13a8.969,8.969,0,0,1,1.74-5.912,5.958,5.958,0,0,1,4.832-2.078,6,6,0,0,1,4.621,1.7,7.732,7.732,0,0,1,1.8,4.883H47.452a5.014,5.014,0,0,0-.607-2.716,2.4,2.4,0,0,0-2.039-.748,2.281,2.281,0,0,0-2.127,1.055,7.375,7.375,0,0,0-.664,3.471V-.365a8.113,8.113,0,0,0,.605,3.81A2.278,2.278,0,0,0,44.747,4.48a2.455,2.455,0,0,0,2.046-.722,4.757,4.757,0,0,0,.64-2.618ZM68.349-.71H62.494V4.225h6.93V7.344H58.735V-11.27H69.4v3.132h-6.9v4.4h5.855ZM80.584,4.225h6.6V7.344H76.82V-11.27h3.764Z" transform="translate(-0.914 20.475)" fill="#fff"/></svg>