<svg xmlns="http://www.w3.org/2000/svg" xmlns:xlink="http://www.w3.org/1999/xlink" width="220" height="160" viewBox="0 0 220 160"><defs><clipPath id="a"><rect width="53" height="2" fill="none"/></clipPath><clipPath id="b"><rect width="41" height="2" fill="none"/></clipPath></defs><path d="M0,0H220V160H0Z" fill="#fff" opacity="0"/><path d="M-5946.5-1124v-1.5h-1.5a1,1,0,0,1-1-1,1,1,0,0,1,1-1h1.5v-1.5a1,1,0,0,1,1-1,1,1,0,0,1,1,1v1.5h1.5a1,1,0,0,1,1,1,1,1,0,0,1-1,1h-1.5v1.5a1,1,0,0,1-1,1A1,1,0,0,1-5946.5-1124Z" transform="translate(6008 1245.5)" fill="#fff" opacity="0.3"/><path d="M-5946.5-1124v-1.5h-1.5a1,1,0,0,1-1-1,1,1,0,0,1,1-1h1.5v-1.5a1,1,0,0,1,1-1,1,1,0,0,1,1,1v1.5h1.5a1,1,0,0,1,1,1,1,1,0,0,1-1,1h-1.5v1.5a1,1,0,0,1-1,1A1,1,0,0,1-5946.5-1124Z" transform="translate(5987.5 1160.499)" fill="#fff" opacity="0.3"/><path d="M-5946.5-1124v-1.5h-1.5a1,1,0,0,1-1-1,1,1,0,0,1,1-1h1.5v-1.5a1,1,0,0,1,1-1,1,1,0,0,1,1,1v1.5h1.5a1,1,0,0,1,1,1,1,1,0,0,1-1,1h-1.5v1.5a1,1,0,0,1-1,1A1,1,0,0,1-5946.5-1124Z" transform="translate(6143 1206.5)" fill="#fff" opacity="0.3"/><path d="M470.518,469.839h4.7l-1.413-1.382-.015-.016a.937.937,0,0,1,.015-1.326.973.973,0,0,1,1.359,0l3.075,3.026a.937.937,0,0,1,.281.67v.053a.942.942,0,0,1-.281.672l-3.075,3.023a.971.971,0,0,1-1.361,0l-.013-.014a.937.937,0,0,1,.013-1.326l1.411-1.38h-4.692a1,1,0,1,1,0-2Z" transform="translate(-364.837 503.517) rotate(-90)" fill="#fff" stroke="rgba(0,0,0,0)" stroke-width="1" opacity="0.3"/><g transform="translate(10 14)" opacity="0"><g transform="translate(116 128)" opacity="0.6" clip-path="url(#a)"><g transform="translate(-679 -530)"><rect width="4" height="2" rx="1" transform="translate(679 530)" fill="#fff"/></g><g transform="translate(-672 -530)"><rect width="4" height="2" rx="1" transform="translate(679 530)" fill="#fff"/></g><g transform="translate(-665 -530)"><rect width="4" height="2" rx="1" transform="translate(679 530)" fill="#fff"/></g><g transform="translate(-658 -530)"><rect width="4" height="2" rx="1" transform="translate(679 530)" fill="#fff"/></g><g transform="translate(-651 -530)"><rect width="4" height="2" rx="1" transform="translate(679 530)" fill="#fff"/></g><g transform="translate(-644 -530)"><rect width="4" height="2" rx="1" transform="translate(679 530)" fill="#fff"/></g><g transform="translate(-637 -530)"><rect width="4" height="2" rx="1" transform="translate(679 530)" fill="#fff"/></g><g transform="translate(-630 -530)"><rect width="4" height="2" rx="1" transform="translate(679 530)" fill="#fff"/></g></g><g transform="translate(169 86) rotate(90)" opacity="0.6" clip-path="url(#b)"><g transform="translate(-679 -530)"><rect width="4" height="2" rx="1" transform="translate(679 530)" fill="#fff"/></g><g transform="translate(-672 -530)"><rect width="4" height="2" rx="1" transform="translate(679 530)" fill="#fff"/></g><g transform="translate(-665 -530)"><rect width="4" height="2" rx="1" transform="translate(679 530)" fill="#fff"/></g><g transform="translate(-658 -530)"><rect width="4" height="2" rx="1" transform="translate(679 530)" fill="#fff"/></g><g transform="translate(-651 -530)"><rect width="4" height="2" rx="1" transform="translate(679 530)" fill="#fff"/></g><g transform="translate(-644 -530)"><rect width="4" height="2" rx="1" transform="translate(679 530)" fill="#fff"/></g></g></g><g transform="translate(-976 -208)"><path d="M10,0H74L84,10H0Z" transform="translate(1044 246)" fill="#1b7343"/><path d="M6,0H48L70,22V78a6,6,0,0,1-6,6H6a6,6,0,0,1-6-6V6A6,6,0,0,1,6,0Z" transform="translate(1051 216)" fill="#e6e6e6"/><path d="M0,0,22,22H4a4,4,0,0,1-4-4Z" transform="translate(1099 216)" fill="#b3b3b3"/><path d="M0,0H84a0,0,0,0,1,0,0V28a4,4,0,0,1-4,4H4a4,4,0,0,1-4-4V0A0,0,0,0,1,0,0Z" transform="translate(1044 256)" fill="#199d58"/><text transform="translate(1086 278)" fill="#fff" font-size="17" font-family="SegoeUI-Bold, Segoe UI" font-weight="700" letter-spacing="0.06em"><tspan x="-21.78" y="0">XLSX</tspan></text></g><g transform="translate(10 12)" opacity="0.4"><rect width="4" height="2" rx="1" transform="translate(101 86) rotate(90)" fill="#fff"/><rect width="4" height="2" rx="1" transform="translate(101 93) rotate(90)" fill="#fff"/><rect width="4" height="2" rx="1" transform="translate(101 100) rotate(90)" fill="#fff"/><rect width="4" height="2" rx="1" transform="translate(101 107) rotate(90)" fill="#fff"/><rect width="4" height="2" rx="1" transform="translate(101 114) rotate(90)" fill="#fff"/></g><path d="M72,464a8,8,0,1,1,8-8A8,8,0,0,1,72,464Zm0-14a6,6,0,1,0,6,6A6,6,0,0,0,72,450Zm3,7H73v2a1,1,0,0,1-2,0v-2H69a1,1,0,0,1,0-2h2v-2a1,1,0,1,1,2,0v2h2a1,1,0,0,1,0,2Z" transform="translate(38 -313)" fill="#bfbfbf" stroke="rgba(0,0,0,0)" stroke-width="1" opacity="0.8"/><g transform="translate(-279 -131)" opacity="0.3"><g transform="translate(-754.646 -17.142)"><path d="M1048.647,232.142h-2a1,1,0,0,0,0,2h2a1,1,0,0,0,0-2Z" fill="#fff" stroke="rgba(0,0,0,0)" stroke-width="1"/><path d="M1048.647,229.142h-2a1,1,0,0,0,0,2h2a1,1,0,0,0,0-2Z" fill="#fff" stroke="rgba(0,0,0,0)" stroke-width="1"/><path d="M1053.647,238.142h-2a1,1,0,0,0,0,2h2a1,1,0,0,0,0-2Z" fill="#fff" stroke="rgba(0,0,0,0)" stroke-width="1"/><path d="M1048.647,235.142h-2a1,1,0,0,0,0,2h2a1,1,0,0,0,0-2Z" fill="#fff" stroke="rgba(0,0,0,0)" stroke-width="1"/><path d="M1048.647,238.142h-2a1,1,0,0,0,0,2h2a1,1,0,0,0,0-2Z" fill="#fff" stroke="rgba(0,0,0,0)" stroke-width="1"/><path d="M1056.647,231.142h2a1,1,0,0,0,0-2h-2a1,1,0,0,0,0,2Z" fill="#fff" stroke="rgba(0,0,0,0)" stroke-width="1"/><path d="M1058.647,235.142h-2a1,1,0,0,0,0,2h2a1,1,0,0,0,0-2Z" fill="#fff" stroke="rgba(0,0,0,0)" stroke-width="1"/><path d="M1058.647,232.142h-2a1,1,0,0,0,0,2h2a1,1,0,0,0,0-2Z" fill="#fff" stroke="rgba(0,0,0,0)" stroke-width="1"/><path d="M1058.647,238.142h-2a1,1,0,0,0,0,2h2a1,1,0,0,0,0-2Z" fill="#fff" stroke="rgba(0,0,0,0)" stroke-width="1"/><path d="M1053.647,229.142h-2a1,1,0,0,0,0,2h2a1,1,0,0,0,0-2Z" fill="#fff" stroke="rgba(0,0,0,0)" stroke-width="1"/><path d="M1053.647,235.142h-2a1,1,0,0,0,0,2h2a1,1,0,0,0,0-2Z" fill="#fff" stroke="rgba(0,0,0,0)" stroke-width="1"/><path d="M1053.647,232.142h-2a1,1,0,0,0,0,2h2a1,1,0,0,0,0-2Z" fill="#fff" stroke="rgba(0,0,0,0)" stroke-width="1"/></g></g><g transform="translate(-130 -104)" opacity="0.3"><g transform="translate(-754.646 -17.142)"><path d="M1048.647,232.142h-2a1,1,0,0,0,0,2h2a1,1,0,0,0,0-2Z" fill="#fff" stroke="rgba(0,0,0,0)" stroke-width="1"/><path d="M1048.647,229.142h-2a1,1,0,0,0,0,2h2a1,1,0,0,0,0-2Z" fill="#fff" stroke="rgba(0,0,0,0)" stroke-width="1"/><path d="M1053.647,238.142h-2a1,1,0,0,0,0,2h2a1,1,0,0,0,0-2Z" fill="#fff" stroke="rgba(0,0,0,0)" stroke-width="1"/><path d="M1048.647,235.142h-2a1,1,0,0,0,0,2h2a1,1,0,0,0,0-2Z" fill="#fff" stroke="rgba(0,0,0,0)" stroke-width="1"/><path d="M1048.647,238.142h-2a1,1,0,0,0,0,2h2a1,1,0,0,0,0-2Z" fill="#fff" stroke="rgba(0,0,0,0)" stroke-width="1"/><path d="M1056.647,231.142h2a1,1,0,0,0,0-2h-2a1,1,0,0,0,0,2Z" fill="#fff" stroke="rgba(0,0,0,0)" stroke-width="1"/><path d="M1058.647,235.142h-2a1,1,0,0,0,0,2h2a1,1,0,0,0,0-2Z" fill="#fff" stroke="rgba(0,0,0,0)" stroke-width="1"/><path d="M1058.647,232.142h-2a1,1,0,0,0,0,2h2a1,1,0,0,0,0-2Z" fill="#fff" stroke="rgba(0,0,0,0)" stroke-width="1"/><path d="M1058.647,238.142h-2a1,1,0,0,0,0,2h2a1,1,0,0,0,0-2Z" fill="#fff" stroke="rgba(0,0,0,0)" stroke-width="1"/><path d="M1053.647,229.142h-2a1,1,0,0,0,0,2h2a1,1,0,0,0,0-2Z" fill="#fff" stroke="rgba(0,0,0,0)" stroke-width="1"/><path d="M1053.647,235.142h-2a1,1,0,0,0,0,2h2a1,1,0,0,0,0-2Z" fill="#fff" stroke="rgba(0,0,0,0)" stroke-width="1"/><path d="M1053.647,232.142h-2a1,1,0,0,0,0,2h2a1,1,0,0,0,0-2Z" fill="#fff" stroke="rgba(0,0,0,0)" stroke-width="1"/></g></g><g transform="translate(-111 -196)" opacity="0.3"><g transform="translate(-754.646 -17.142)"><path d="M1048.647,232.142h-2a1,1,0,0,0,0,2h2a1,1,0,0,0,0-2Z" fill="#fff" stroke="rgba(0,0,0,0)" stroke-width="1"/><path d="M1048.647,229.142h-2a1,1,0,0,0,0,2h2a1,1,0,0,0,0-2Z" fill="#fff" stroke="rgba(0,0,0,0)" stroke-width="1"/><path d="M1053.647,238.142h-2a1,1,0,0,0,0,2h2a1,1,0,0,0,0-2Z" fill="#fff" stroke="rgba(0,0,0,0)" stroke-width="1"/><path d="M1048.647,235.142h-2a1,1,0,0,0,0,2h2a1,1,0,0,0,0-2Z" fill="#fff" stroke="rgba(0,0,0,0)" stroke-width="1"/><path d="M1048.647,238.142h-2a1,1,0,0,0,0,2h2a1,1,0,0,0,0-2Z" fill="#fff" stroke="rgba(0,0,0,0)" stroke-width="1"/><path d="M1056.647,231.142h2a1,1,0,0,0,0-2h-2a1,1,0,0,0,0,2Z" fill="#fff" stroke="rgba(0,0,0,0)" stroke-width="1"/><path d="M1058.647,235.142h-2a1,1,0,0,0,0,2h2a1,1,0,0,0,0-2Z" fill="#fff" stroke="rgba(0,0,0,0)" stroke-width="1"/><path d="M1058.647,232.142h-2a1,1,0,0,0,0,2h2a1,1,0,0,0,0-2Z" fill="#fff" stroke="rgba(0,0,0,0)" stroke-width="1"/><path d="M1058.647,238.142h-2a1,1,0,0,0,0,2h2a1,1,0,0,0,0-2Z" fill="#fff" stroke="rgba(0,0,0,0)" stroke-width="1"/><path d="M1053.647,229.142h-2a1,1,0,0,0,0,2h2a1,1,0,0,0,0-2Z" fill="#fff" stroke="rgba(0,0,0,0)" stroke-width="1"/><path d="M1053.647,235.142h-2a1,1,0,0,0,0,2h2a1,1,0,0,0,0-2Z" fill="#fff" stroke="rgba(0,0,0,0)" stroke-width="1"/><path d="M1053.647,232.142h-2a1,1,0,0,0,0,2h2a1,1,0,0,0,0-2Z" fill="#fff" stroke="rgba(0,0,0,0)" stroke-width="1"/></g></g></svg>